<svg xmlns="http://www.w3.org/2000/svg" viewBox="0 0 27 22" width="27" height="22">
	<style>
		tspan { white-space:pre }
		.shp0 { fill: #8e8d8d } 
	</style>
	<defs>
		<path id="CameraIcon" fill-rule="evenodd" class="shp0" d="M2.61 4.9L6.63 4.9L6.63 3.29C6.63 2.4 7.35 1.68 8.24 1.68L17.9 1.68C18.79 1.68 19.51 2.4 19.51 3.29L19.51 4.9L23.54 4.9C24.43 4.9 25.15 5.62 25.15 6.51L25.15 19.39C25.15 20.28 24.43 21 23.54 21L2.61 21C1.72 21 1 20.28 1 19.39L1 6.51C1 5.62 1.72 4.9 2.61 4.9ZM7.64 12.75C7.64 15.75 10.07 18.18 13.07 18.18C16.07 18.18 18.51 15.75 18.51 12.75C18.51 9.75 16.07 7.32 13.07 7.32C10.07 7.32 7.64 9.75 7.64 12.75ZM13.07 9.33C14.96 9.33 16.49 10.86 16.49 12.75C16.49 14.64 14.96 16.17 13.07 16.17C11.18 16.17 9.65 14.64 9.65 12.75C9.65 10.86 11.18 9.33 13.07 9.33Z" />
		<path id="ChatIcon" class="shp0" d="M6.1 1.9L16.03 1.9C18.78 1.9 21 4.12 21 6.86L21 13.07C21 15.81 18.78 18.03 16.03 18.03L6.1 18.03C3.36 18.03 1.14 15.81 1.14 13.07L1.14 6.86C1.14 4.12 3.36 1.9 6.1 1.9ZM10.36 17.86C10.36 17.86 12.67 21.94 15.5 23C15.5 23 15.33 19.63 16.03 17.5L10.36 17.86Z" />
	</defs>
</svg>