<?xml version="1.0" encoding="UTF-8" standalone="no"?>
<svg
   xmlns:dc="http://purl.org/dc/elements/1.1/"
   xmlns:cc="http://creativecommons.org/ns#"
   xmlns:rdf="http://www.w3.org/1999/02/22-rdf-syntax-ns#"
   xmlns:svg="http://www.w3.org/2000/svg"
   xmlns="http://www.w3.org/2000/svg"
   xmlns:sodipodi="http://sodipodi.sourceforge.net/DTD/sodipodi-0.dtd"
   xmlns:inkscape="http://www.inkscape.org/namespaces/inkscape"
   viewBox="0 0 32 32"
   width="32"
   height="32"
   version="1.1"
   id="svg4"
   sodipodi:docname="icons8-bb.svg"
   inkscape:version="0.92.4 (5da689c313, 2019-01-14)">
  <metadata
     id="metadata10">
    <rdf:RDF>
      <cc:Work
         rdf:about="">
        <dc:format>image/svg+xml</dc:format>
        <dc:type
           rdf:resource="http://purl.org/dc/dcmitype/StillImage" />
      </cc:Work>
    </rdf:RDF>
  </metadata>
  <defs
     id="defs8" />
  <sodipodi:namedview
     pagecolor="#ffffff"
     bordercolor="#666666"
     borderopacity="1"
     objecttolerance="10"
     gridtolerance="10"
     guidetolerance="10"
     inkscape:pageopacity="0"
     inkscape:pageshadow="2"
     inkscape:window-width="732"
     inkscape:window-height="480"
     id="namedview6"
     showgrid="false"
     inkscape:zoom="7.375"
     inkscape:cx="16"
     inkscape:cy="16"
     inkscape:window-x="0"
     inkscape:window-y="0"
     inkscape:window-maximized="0"
     inkscape:current-layer="svg4" />
  <path class=".pathh"
     d="M 16.000001,0.33898305 C 7.2144692,0.33898305 0.06779661,7.3640101 0.06779661,16 c 0,8.635991 7.14667259,15.661017 15.93220439,15.661017 8.785531,0 15.932202,-7.025026 15.932202,-15.661017 0,-8.6359899 -7.146671,-15.66101695 -15.932202,-15.66101695 z m 0,2.61016955 c 3.365885,0 6.415407,1.2439088 8.754413,3.2627118 -0.248941,0.3415655 -0.586047,0.7545021 -1.120233,1.2643009 -1.135793,1.0807732 -2.950984,2.3807603 -5.725636,3.3850637 -1.877427,-3.4105534 -3.718551,-5.9748412 -4.937324,-7.5858053 0.969833,-0.2192138 1.986341,-0.3262711 3.02878,-0.3262711 z m -5.642657,1.223517 c 1.089117,1.4019467 3.028779,4.0019195 4.978814,7.4634534 C 9.9372575,13.043168 4.984375,13.221597 3.0135946,13.226695 3.8952602,9.1941866 6.6543526,5.8753979 10.357344,4.1726696 Z m 16.222635,3.9560379 c 1.618115,2.1054685 2.62425,4.7105405 2.696857,7.5450215 -1.182469,-0.259998 -2.925053,-0.514897 -5.186263,-0.53019 -1.177284,-0.0051 -2.510153,0.07647 -3.941563,0.244703 -0.331919,-0.744305 -0.689771,-1.463123 -1.037251,-2.161547 2.976915,-1.121557 5.004744,-2.599973 6.347987,-3.8744705 0.45639,-0.4384262 0.814243,-0.8411675 1.120233,-1.223517 z M 16.539372,14.001589 c 0.305989,0.60666 0.617164,1.228614 0.912782,1.87606 -5.673772,1.54469 -9.7501766,6.275622 -11.4927614,8.646186 C 3.952308,22.239937 2.7231638,19.262711 2.7231638,16 c 0,-0.05608 0,-0.107063 0,-0.163135 1.794448,0.02039 7.4993392,-0.101957 13.8162082,-1.835276 z m 7.551201,3.711334 c 2.370122,0 4.008981,0.326272 4.978813,0.570975 -0.617166,3.476828 -2.613877,6.459151 -5.435205,8.401483 -0.528998,-3.119967 -1.400291,-6.086996 -2.447917,-8.809322 1.047626,-0.101957 2.038202,-0.163136 2.904309,-0.163136 z m -5.601167,0.61176 c 1.192842,2.977223 2.193791,6.245034 2.696858,9.706567 -1.586996,0.65764 -3.350326,1.019597 -5.186263,1.019597 -3.044338,0 -5.855293,-1.004303 -8.0905731,-2.691736 1.3639878,-1.835276 5.3729691,-6.719147 10.5799781,-8.034428 z"
     id="path2"
     inkscape:connector-curvature="0"
     style="stroke-width:1.31633568" />
</svg>
