<svg xmlns="http://www.w3.org/2000/svg" viewBox="0 0 18 17" width="18" height="17">
	<style>
		tspan { white-space:pre }
		.shp0 { fill: #ffffff } 
	</style>
	<g id="SEARCH / DROP DOWN">
		<g id="SEARCH">
			<path id="Mag Glass" fill-rule="evenodd" class="shp0" d="M3.73 3.03C5.71 1.05 8.93 1.05 10.91 3.03C12.5 4.61 12.82 6.97 11.88 8.87L15.47 12.47C16.02 13.02 15.94 13.99 15.39 14.54C14.84 15.09 13.95 15.09 13.41 14.54L9.88 11.01C7.93 12.15 5.4 11.88 3.73 10.21C1.75 8.23 1.75 5.01 3.73 3.03ZM5.01 8.93C6.29 10.21 8.36 10.21 9.63 8.93C10.91 7.66 10.91 5.59 9.63 4.31C8.36 3.04 6.29 3.04 5.01 4.31C3.74 5.59 3.74 7.66 5.01 8.93Z" />
		</g>
	</g>
</svg>